<svg xmlns="http://www.w3.org/2000/svg" xmlns:xlink="http://www.w3.org/1999/xlink" width="2000" zoomAndPan="magnify" viewBox="0 0 1500 1499.999933" height="2000" preserveAspectRatio="xMidYMid meet" version="1.0"><defs><clipPath id="269462fb36"><path d="M 0 240 L 0 1260 C 0 1392.546875 107.453125 1500 240 1500 L 1260 1500 C 1392.546875 1500 1500 1392.546875 1500 1260 L 1500 240 C 1500 107.453125 1392.546875 0 1260 0 L 240 0 C 107.453125 0 0 107.453125 0 240 Z M 0 240 " clip-rule="nonzero"/></clipPath><clipPath id="763d0d6f72"><path d="M 699 285 L 1352 285 L 1352 1292 L 699 1292 Z M 699 285 " clip-rule="nonzero"/></clipPath><clipPath id="5300fa0755"><path d="M 0 240 L 0 1260 C 0 1392.546875 107.453125 1500 240 1500 L 1260 1500 C 1392.546875 1500 1500 1392.546875 1500 1260 L 1500 240 C 1500 107.453125 1392.546875 0 1260 0 L 240 0 C 107.453125 0 0 107.453125 0 240 Z M 0 240 " clip-rule="nonzero"/></clipPath><clipPath id="1c05d908ad"><path d="M 768.265625 285.9375 C 785.210938 285.101562 803.101562 285.808594 820.21875 285.800781 C 837.96875 285.792969 857.621094 285.382812 875.144531 286.929688 C 926.484375 291.675781 975.441406 310.773438 1016.4375 342.035156 C 1071.375 384.15625 1107.394531 446.3125 1116.644531 514.914062 C 1120.914062 545.953125 1118.472656 573.398438 1119.105469 603.71875 C 1121.527344 718.734375 1121.171875 786.527344 1049.035156 881.417969 L 1048.996094 964.210938 C 1060.871094 962.953125 1081.390625 963.535156 1094.007812 963.566406 L 1093.519531 945.625 C 1092.660156 910.613281 1091.773438 864.25 1139.328125 864.546875 C 1146.808594 864.609375 1154.097656 866.96875 1160.1875 871.3125 C 1167.789062 876.667969 1178.234375 887.242188 1185.007812 893.945312 C 1234.089844 942.515625 1283.027344 991.179688 1332.484375 1039.371094 C 1343.746094 1050.34375 1351.683594 1063.773438 1351.125 1080.039062 C 1350.355469 1102.328125 1329.683594 1118.199219 1314.632812 1132.789062 C 1302.277344 1144.796875 1290.003906 1156.894531 1277.804688 1169.054688 L 1210.523438 1236.265625 C 1190.71875 1256.078125 1161.421875 1294.070312 1132.460938 1291.730469 C 1088.492188 1288.175781 1093.101562 1243.714844 1094.511719 1211.597656 C 1094.765625 1205.425781 1096.441406 1193.027344 1090.554688 1189.1875 L 1084.34375 1189.042969 C 1083.996094 1164.519531 1083.761719 1137.304688 1084.609375 1112.925781 C 1109.695312 1113.804688 1137.625 1113.242188 1162.933594 1113.191406 L 1162.914062 1174.726562 C 1196.410156 1143.386719 1228.980469 1111.054688 1260.574219 1077.792969 C 1231.941406 1048.800781 1192.722656 1009.480469 1162.566406 982.574219 C 1163.066406 1001.828125 1163.800781 1021.996094 1162.824219 1041.320312 C 1103.042969 1039.175781 1033.390625 1040.535156 973.222656 1041.402344 L 973.183594 849.578125 C 1045.101562 770.597656 1042.304688 706.351562 1041.894531 607.753906 C 1041.585938 534.429688 1041.003906 475.363281 984.78125 418.203125 C 934.289062 366.871094 874.101562 360.105469 806.167969 361.910156 C 771.1875 362.660156 734.417969 362.996094 699.519531 362.695312 C 719.121094 342.703125 750.351562 307.683594 768.265625 285.9375 Z M 768.265625 285.9375 " clip-rule="nonzero"/></clipPath><linearGradient x1="1608.480524" gradientTransform="matrix(1.021875, 0, 0, 1.021875, -266.136585, -289.793387)" y1="583.760763" x2="859.508785" gradientUnits="userSpaceOnUse" y2="1478.402219" id="d6c53aec55"><stop stop-opacity="1" stop-color="rgb(0%, 89.019775%, 40.388489%)" offset="0"/><stop stop-opacity="1" stop-color="rgb(0%, 89.019775%, 40.388489%)" offset="0.125"/><stop stop-opacity="1" stop-color="rgb(0%, 89.019775%, 40.388489%)" offset="0.1875"/><stop stop-opacity="1" stop-color="rgb(0%, 89.015198%, 40.390015%)" offset="0.21875"/><stop stop-opacity="1" stop-color="rgb(0%, 88.833618%, 40.470886%)" offset="0.234375"/><stop stop-opacity="1" stop-color="rgb(0%, 88.478088%, 40.625%)" offset="0.25"/><stop stop-opacity="1" stop-color="rgb(0%, 88.122559%, 40.78064%)" offset="0.265625"/><stop stop-opacity="1" stop-color="rgb(0%, 87.768555%, 40.936279%)" offset="0.28125"/><stop stop-opacity="1" stop-color="rgb(0%, 87.413025%, 41.091919%)" offset="0.296875"/><stop stop-opacity="1" stop-color="rgb(0%, 87.059021%, 41.246033%)" offset="0.3125"/><stop stop-opacity="1" stop-color="rgb(0%, 86.703491%, 41.401672%)" offset="0.328125"/><stop stop-opacity="1" stop-color="rgb(0%, 86.347961%, 41.557312%)" offset="0.34375"/><stop stop-opacity="1" stop-color="rgb(0%, 85.993958%, 41.712952%)" offset="0.351123"/><stop stop-opacity="1" stop-color="rgb(0%, 85.816956%, 41.790771%)" offset="0.359375"/><stop stop-opacity="1" stop-color="rgb(0%, 85.638428%, 41.868591%)" offset="0.375"/><stop stop-opacity="1" stop-color="rgb(0%, 85.282898%, 42.022705%)" offset="0.390625"/><stop stop-opacity="1" stop-color="rgb(0%, 84.928894%, 42.178345%)" offset="0.40625"/><stop stop-opacity="1" stop-color="rgb(0%, 84.573364%, 42.333984%)" offset="0.421875"/><stop stop-opacity="1" stop-color="rgb(0%, 84.217834%, 42.489624%)" offset="0.4375"/><stop stop-opacity="1" stop-color="rgb(0%, 83.863831%, 42.643738%)" offset="0.453125"/><stop stop-opacity="1" stop-color="rgb(0%, 83.508301%, 42.799377%)" offset="0.46875"/><stop stop-opacity="1" stop-color="rgb(0%, 83.152771%, 42.955017%)" offset="0.484375"/><stop stop-opacity="1" stop-color="rgb(0%, 82.798767%, 43.110657%)" offset="0.5"/><stop stop-opacity="1" stop-color="rgb(0%, 82.443237%, 43.266296%)" offset="0.515625"/><stop stop-opacity="1" stop-color="rgb(0%, 82.087708%, 43.42041%)" offset="0.53125"/><stop stop-opacity="1" stop-color="rgb(0%, 81.733704%, 43.57605%)" offset="0.546875"/><stop stop-opacity="1" stop-color="rgb(0%, 81.378174%, 43.731689%)" offset="0.5625"/><stop stop-opacity="1" stop-color="rgb(0%, 81.022644%, 43.887329%)" offset="0.578125"/><stop stop-opacity="1" stop-color="rgb(0%, 80.66864%, 44.041443%)" offset="0.59375"/><stop stop-opacity="1" stop-color="rgb(0%, 80.31311%, 44.197083%)" offset="0.609375"/><stop stop-opacity="1" stop-color="rgb(0%, 79.957581%, 44.352722%)" offset="0.625"/><stop stop-opacity="1" stop-color="rgb(0%, 79.603577%, 44.508362%)" offset="0.640625"/><stop stop-opacity="1" stop-color="rgb(0%, 79.248047%, 44.664001%)" offset="0.648877"/><stop stop-opacity="1" stop-color="rgb(0%, 79.071045%, 44.741821%)" offset="0.65625"/><stop stop-opacity="1" stop-color="rgb(0%, 78.892517%, 44.818115%)" offset="0.671875"/><stop stop-opacity="1" stop-color="rgb(0%, 78.538513%, 44.973755%)" offset="0.6875"/><stop stop-opacity="1" stop-color="rgb(0%, 78.182983%, 45.129395%)" offset="0.703125"/><stop stop-opacity="1" stop-color="rgb(0%, 77.827454%, 45.285034%)" offset="0.71875"/><stop stop-opacity="1" stop-color="rgb(0%, 77.47345%, 45.439148%)" offset="0.734375"/><stop stop-opacity="1" stop-color="rgb(0%, 77.11792%, 45.594788%)" offset="0.75"/><stop stop-opacity="1" stop-color="rgb(0%, 76.76239%, 45.750427%)" offset="0.765625"/><stop stop-opacity="1" stop-color="rgb(0%, 76.527405%, 45.852661%)" offset="0.78125"/><stop stop-opacity="1" stop-color="rgb(0%, 76.469421%, 45.878601%)" offset="0.8125"/><stop stop-opacity="1" stop-color="rgb(0%, 76.469421%, 45.878601%)" offset="0.875"/><stop stop-opacity="1" stop-color="rgb(0%, 76.469421%, 45.878601%)" offset="1"/></linearGradient><clipPath id="e6fa9af0ba"><path d="M 1048 864 L 1140 864 L 1140 969 L 1048 969 Z M 1048 864 " clip-rule="nonzero"/></clipPath><clipPath id="93b01f93ea"><path d="M 0 240 L 0 1260 C 0 1392.546875 107.453125 1500 240 1500 L 1260 1500 C 1392.546875 1500 1500 1392.546875 1500 1260 L 1500 240 C 1500 107.453125 1392.546875 0 1260 0 L 240 0 C 107.453125 0 0 107.453125 0 240 Z M 0 240 " clip-rule="nonzero"/></clipPath><clipPath id="9cfd861ec8"><path d="M 246 285 L 933 285 L 933 1122 L 246 1122 Z M 246 285 " clip-rule="nonzero"/></clipPath><clipPath id="1c470037f2"><path d="M 0 240 L 0 1260 C 0 1392.546875 107.453125 1500 240 1500 L 1260 1500 C 1392.546875 1500 1500 1392.546875 1500 1260 L 1500 240 C 1500 107.453125 1392.546875 0 1260 0 L 240 0 C 107.453125 0 0 107.453125 0 240 Z M 0 240 " clip-rule="nonzero"/></clipPath><clipPath id="b9f0990df3"><path d="M 650 1040 L 1085 1040 L 1085 1190 L 650 1190 Z M 650 1040 " clip-rule="nonzero"/></clipPath><clipPath id="5acba2ad31"><path d="M 0 240 L 0 1260 C 0 1392.546875 107.453125 1500 240 1500 L 1260 1500 C 1392.546875 1500 1500 1392.546875 1500 1260 L 1500 240 C 1500 107.453125 1392.546875 0 1260 0 L 240 0 C 107.453125 0 0 107.453125 0 240 Z M 0 240 " clip-rule="nonzero"/></clipPath><clipPath id="6e6e51113d"><path d="M 447 507 L 920 507 L 920 561 L 447 561 Z M 447 507 " clip-rule="nonzero"/></clipPath><clipPath id="0420e7c40f"><path d="M 0 240 L 0 1260 C 0 1392.546875 107.453125 1500 240 1500 L 1260 1500 C 1392.546875 1500 1500 1392.546875 1500 1260 L 1500 240 C 1500 107.453125 1392.546875 0 1260 0 L 240 0 C 107.453125 0 0 107.453125 0 240 Z M 0 240 " clip-rule="nonzero"/></clipPath><clipPath id="37e0a076a0"><path d="M 477 507 L 920 507 L 920 554 L 477 554 Z M 477 507 " clip-rule="nonzero"/></clipPath><clipPath id="4f5f883b5d"><path d="M 0 240 L 0 1260 C 0 1392.546875 107.453125 1500 240 1500 L 1260 1500 C 1392.546875 1500 1500 1392.546875 1500 1260 L 1500 240 C 1500 107.453125 1392.546875 0 1260 0 L 240 0 C 107.453125 0 0 107.453125 0 240 Z M 0 240 " clip-rule="nonzero"/></clipPath><clipPath id="daae61de41"><path d="M 448 625 L 919 625 L 919 679 L 448 679 Z M 448 625 " clip-rule="nonzero"/></clipPath><clipPath id="68bb6778fd"><path d="M 0 240 L 0 1260 C 0 1392.546875 107.453125 1500 240 1500 L 1260 1500 C 1392.546875 1500 1500 1392.546875 1500 1260 L 1500 240 C 1500 107.453125 1392.546875 0 1260 0 L 240 0 C 107.453125 0 0 107.453125 0 240 Z M 0 240 " clip-rule="nonzero"/></clipPath><clipPath id="15f658b81d"><path d="M 447 743 L 773 743 L 773 798 L 447 798 Z M 447 743 " clip-rule="nonzero"/></clipPath><clipPath id="bea186dce2"><path d="M 0 240 L 0 1260 C 0 1392.546875 107.453125 1500 240 1500 L 1260 1500 C 1392.546875 1500 1500 1392.546875 1500 1260 L 1500 240 C 1500 107.453125 1392.546875 0 1260 0 L 240 0 C 107.453125 0 0 107.453125 0 240 Z M 0 240 " clip-rule="nonzero"/></clipPath><clipPath id="09b7a4d15a"><path d="M 447 744 L 513 744 L 513 798 L 447 798 Z M 447 744 " clip-rule="nonzero"/></clipPath><clipPath id="80eab7cb2b"><path d="M 0 240 L 0 1260 C 0 1392.546875 107.453125 1500 240 1500 L 1260 1500 C 1392.546875 1500 1500 1392.546875 1500 1260 L 1500 240 C 1500 107.453125 1392.546875 0 1260 0 L 240 0 C 107.453125 0 0 107.453125 0 240 Z M 0 240 " clip-rule="nonzero"/></clipPath></defs><g clip-path="url(#269462fb36)"><rect x="-150" width="1800" fill="#fafaf9" y="-149.999993" height="1799.99992" fill-opacity="1"/></g><g clip-path="url(#763d0d6f72)"><g clip-path="url(#5300fa0755)"><g clip-path="url(#1c05d908ad)"><path fill="url(#d6c53aec55)" d="M 699.519531 285.101562 L 699.519531 1294.070312 L 1351.683594 1294.070312 L 1351.683594 285.101562 Z M 699.519531 285.101562 " fill-rule="nonzero"/></g></g></g><g clip-path="url(#e6fa9af0ba)"><g clip-path="url(#93b01f93ea)"><path fill="#41cd5e" d="M 1094.007812 963.566406 L 1093.519531 945.625 C 1092.660156 910.613281 1091.773438 864.25 1139.328125 864.546875 C 1133.371094 868.746094 1127.9375 869.1875 1120.863281 870.199219 C 1116.265625 874.847656 1107.179688 883.433594 1104.484375 888.859375 C 1092.875 912.167969 1098.394531 942.597656 1094.5625 968.800781 C 1078.476562 967.144531 1065.152344 966.683594 1048.996094 964.210938 C 1060.871094 962.953125 1081.390625 963.535156 1094.007812 963.566406 Z M 1094.007812 963.566406 " fill-opacity="1" fill-rule="nonzero"/></g></g><g clip-path="url(#9cfd861ec8)"><g clip-path="url(#1c470037f2)"><path fill="#00587b" d="M 498.933594 286.429688 C 511.882812 284.804688 554.734375 285.738281 569.707031 285.769531 C 618.230469 286.015625 666.757812 286.011719 715.28125 285.761719 C 695.402344 310.699219 669.824219 338.875 648.476562 362.859375 L 563.535156 362.699219 C 541.949219 362.574219 515.542969 361.765625 494.589844 364.523438 C 477.363281 366.808594 460.511719 371.34375 444.464844 378.015625 C 398.425781 397.382812 359.773438 434.601562 340.898438 481.085938 C 329.5 509.609375 326.289062 541.40625 325.824219 571.964844 C 325.253906 609.3125 325.890625 646.773438 325.742188 684.132812 C 325.660156 704.640625 325.707031 725.332031 328.351562 745.691406 C 330.753906 765.496094 335.914062 784.863281 343.675781 803.234375 C 368.976562 862.042969 411.578125 891.789062 468.601562 914.753906 C 469.0625 949.433594 469.589844 982.441406 468.328125 1017.144531 C 511.777344 986.683594 557.039062 953.019531 601.414062 924.707031 L 727.90625 924.847656 C 803.59375 925.011719 840.859375 929.292969 911.359375 893.597656 C 918.402344 889.757812 925.460938 885.722656 932.472656 881.796875 L 932.796875 969.972656 C 896.511719 985.363281 860.410156 997.054688 820.8125 999.539062 C 755.347656 1003.644531 688.902344 997.820312 623.40625 1001.367188 C 584.386719 1027.648438 547.003906 1056.191406 508.085938 1082.542969 C 488.367188 1095.890625 460.6875 1120.007812 436.296875 1121.097656 C 424.835938 1121.683594 413.644531 1117.492188 405.382812 1109.53125 C 386.996094 1091.78125 391.300781 1056.40625 391.355469 1032.554688 L 391.488281 965.40625 C 354.359375 942.179688 327.191406 920.851562 300.042969 885.363281 C 241.976562 809.4375 245.871094 725.207031 247.183594 635.878906 C 248.28125 561 239.785156 509.222656 274.875 438.285156 C 285.773438 416.1875 299.421875 395.554688 315.488281 376.875 C 362.03125 323.34375 428.128906 290.753906 498.933594 286.429688 Z M 498.933594 286.429688 " fill-opacity="1" fill-rule="nonzero"/></g></g><g clip-path="url(#b9f0990df3)"><g clip-path="url(#5acba2ad31)"><path fill="#00587b" d="M 650.472656 1040.546875 C 676.65625 1040.757812 702.839844 1040.75 729.023438 1040.515625 C 737.289062 1075.167969 764.242188 1103.746094 799.628906 1109.441406 C 834.257812 1115.019531 874.019531 1112.976562 909.253906 1112.976562 L 1084.609375 1112.925781 C 1083.761719 1137.304688 1083.996094 1164.519531 1084.34375 1189.042969 C 1027.75 1189.941406 968.851562 1189.15625 911.984375 1189.1875 L 851.109375 1189.207031 C 829.691406 1189.207031 808.785156 1189.914062 787.660156 1185.652344 C 759.898438 1179.910156 733.898438 1167.636719 711.820312 1149.84375 C 677.082031 1122.082031 655.425781 1084.792969 650.472656 1040.546875 Z M 650.472656 1040.546875 " fill-opacity="1" fill-rule="nonzero"/></g></g><g clip-path="url(#6e6e51113d)"><g clip-path="url(#0420e7c40f)"><path fill="#00d967" d="M 477.9375 508.441406 C 496.902344 506.96875 530.078125 507.785156 549.921875 507.742188 L 685.742188 507.675781 L 820.78125 507.671875 C 843.382812 507.667969 866.132812 507.273438 888.703125 507.984375 C 895.664062 508.203125 905.65625 509.167969 910.949219 514.105469 C 923.152344 525.460938 920.699219 541.148438 911.105469 553.398438 C 896.492188 563.652344 848.597656 560.445312 829.671875 560.425781 L 713.453125 560.3125 L 555.175781 560.335938 C 528.050781 560.371094 500.886719 560.632812 473.769531 560.164062 C 459.664062 559.921875 448.429688 550.453125 447.796875 536.019531 C 447.457031 528.421875 450.335938 521.035156 455.726562 515.667969 C 462.476562 508.917969 468.980469 508.476562 477.9375 508.441406 Z M 477.9375 508.441406 " fill-opacity="1" fill-rule="nonzero"/></g></g><g clip-path="url(#37e0a076a0)"><g clip-path="url(#4f5f883b5d)"><path fill="#41cd5e" d="M 477.9375 508.441406 C 496.902344 506.96875 530.078125 507.785156 549.921875 507.742188 L 685.742188 507.675781 L 820.78125 507.671875 C 843.382812 507.667969 866.132812 507.273438 888.703125 507.984375 C 895.664062 508.203125 905.65625 509.167969 910.949219 514.105469 C 923.152344 525.460938 920.699219 541.148438 911.105469 553.398438 C 912.199219 542.527344 919.972656 529.765625 911.828125 519.480469 C 907.558594 514.085938 895.621094 512.769531 889.125 512.289062 C 853.949219 509.730469 818.472656 511.464844 783.226562 510.972656 C 697.917969 509.792969 612.105469 513.621094 526.949219 509.019531 C 511.265625 508.171875 494.789062 509.777344 479.101562 508.542969 Z M 477.9375 508.441406 " fill-opacity="1" fill-rule="nonzero"/></g></g><g clip-path="url(#daae61de41)"><g clip-path="url(#68bb6778fd)"><path fill="#00d967" d="M 483.472656 625.753906 C 507.476562 624.96875 537.269531 626.113281 561.921875 626.152344 L 733.273438 626.207031 L 838.613281 626.148438 C 858.070312 626.125 878.496094 625.726562 897.941406 626.941406 C 902.828125 627.25 906.996094 629.761719 910.53125 633.132812 C 915.714844 638.171875 918.707031 645.035156 918.878906 652.253906 C 919.390625 673.230469 902.726562 678.445312 885.464844 678.25 C 801.691406 679.128906 717.238281 678.230469 633.378906 678.273438 L 543.398438 678.386719 C 524.851562 678.492188 505.734375 679.285156 487.296875 678.503906 C 479.828125 678.1875 463.164062 678.046875 457.589844 673.71875 C 451.847656 669.113281 449 660.625 448.640625 653.515625 C 447.503906 631.1875 465.09375 626.425781 483.472656 625.753906 Z M 483.472656 625.753906 " fill-opacity="1" fill-rule="nonzero"/></g></g><g clip-path="url(#15f658b81d)"><g clip-path="url(#bea186dce2)"><path fill="#00d967" d="M 470.554688 744.609375 C 482.308594 743.300781 507.902344 743.976562 520.847656 743.988281 L 613.308594 744.046875 L 700.578125 743.964844 C 716.914062 743.925781 740.910156 741.859375 756.78125 746.429688 C 766.90625 750.324219 772.414062 757.964844 772.679688 768.777344 C 773.253906 791.757812 757.015625 795.917969 737.828125 796.214844 C 663.046875 797.371094 587.074219 794.242188 512.398438 796.121094 C 493.246094 799.035156 455.976562 800.078125 448.808594 776.878906 C 446.96875 771.027344 447.574219 764.679688 450.480469 759.273438 C 454.960938 750.964844 461.878906 747.050781 470.554688 744.609375 Z M 470.554688 744.609375 " fill-opacity="1" fill-rule="nonzero"/></g></g><g clip-path="url(#09b7a4d15a)"><g clip-path="url(#80eab7cb2b)"><path fill="#41cd5e" d="M 512.398438 796.121094 C 493.246094 799.035156 455.976562 800.078125 448.808594 776.878906 C 446.96875 771.027344 447.574219 764.679688 450.480469 759.273438 C 454.960938 750.964844 461.878906 747.050781 470.554688 744.609375 C 466.703125 749.566406 459.308594 754.808594 454.160156 758.8125 C 450.042969 775.839844 451.863281 777.851562 463.019531 791.339844 C 473.828125 792.660156 483.78125 792.832031 494.578125 793.589844 C 500.859375 794.039062 506.460938 795.980469 512.398438 796.121094 Z M 512.398438 796.121094 " fill-opacity="1" fill-rule="nonzero"/></g></g></svg>